<svg version="1.1" id="Layer_1" xmlns="http://www.w3.org/2000/svg" x="0px" y="0px"
	 viewBox="0 0 1000 1000" style="enable-background:new 0 0 1000 1000;" xml:space="preserve">
<style type="text/css">
	.heart{fill:none;}
	.border{fill:#6DAC07;}
</style>
<path class="heart" d="M503.5,874.3L111.3,514.1l-0.4-0.5C73.6,469,53.1,412.2,53.1,353.8c0-135.7,110.4-246.1,246.1-246.1
	c73.1,0,141.7,31.6,188.1,86.8l12.6,15l12.7-15c46.6-55.1,115.2-86.7,188.1-86.7c135.8,0,246.2,110.4,246.2,246.1
	c0,57.2-20.3,114.6-55.6,157.4l-0.4,0.5l-0.5,0.4L503.5,874.3z"/>
<path class="border" d="M503.7,934.2c0,0-387-353.9-423.5-389.3S10,423.4,10,355C10,195.6,139.7,65.8,299.2,65.8
	c75.7,0,147.4,29,200.8,80.4c53.4-51.4,125-80.4,200.7-80.4C860.2,65.8,990,195.6,990,355c0,68.2-30.7,148.9-67.9,187.3
	S503.7,934.2,503.7,934.2z M299.2,118.9C169,118.9,63.1,224.8,63.1,355c0,56,25.7,124.6,55.5,153.4
	c29.8,28.8,384.8,353.4,384.8,353.4S852.2,539.3,883.6,506s53.3-95.1,53.3-151c0-130.2-106-236.1-236.2-236.1
	c-70.1,0-135.8,30.3-180.5,83.2l-20.3,24l-20.3-24C435.1,149.2,369.2,118.9,299.2,118.9z"/>
</svg>
