<svg version="1.1" id="Layer_1" xmlns="http://www.w3.org/2000/svg" x="0px" y="0px"
     viewBox="0 0 1113 960" style="enable-background:new 0 0 1113 960;" xml:space="preserve">
<style type="text/css">
	.st0{fill:#FFFFFF;}
	.st1{fill:url(#SVGID_1_);}
	.st2{fill:url(#SVGID_2_);}
	.st3{fill:url(#SVGID_3_);}
</style>
  <g>
	<path class="st0" d="M618.3,9.4c-0.6,0-1.1,0-1.7-0.1c1.1,19.3,1.2,38.9-0.2,58.7C599.1,328.4,373.3,525.5,112,508.9
		c13.4,235.3,201,429.3,443.2,445.4c262.1,17.5,488.7-179.9,506.1-440.8C1078.7,252.6,880.4,26.9,618.3,9.4z"/>

    <linearGradient id="SVGID_1_" gradientUnits="userSpaceOnUse" x1="1208.4856" y1="680.8373" x2="358.091" y2="633.5696"
                    gradientTransform="matrix(0.9978 6.660000e-002 -6.660000e-002 0.9978 -147.437 -225.6274)">
		<stop offset="0.5521" style="stop-color:#7CC609"/>
      <stop offset="0.6451" style="stop-color:#79C009"/>
      <stop offset="0.7684" style="stop-color:#6FAF07"/>
      <stop offset="0.908" style="stop-color:#5F9405"/>
      <stop offset="0.9634" style="stop-color:#578704"/>
	</linearGradient>
    <path class="st1" d="M615.4,55.4c-0.5,0-1,0-1.5-0.1c1,17.5,2.4,35.3-0.1,53c-31.9,226.2-211.4,399-455.4,398
		c12.1,212.4,181.4,387.5,400,402.1C795,924.2,999.5,746,1015.3,510.5C1031,274.9,852,71.2,615.4,55.4z"/>

    <linearGradient id="SVGID_2_" gradientUnits="userSpaceOnUse" x1="533.8072" y1="441.7054" x2="667.7917" y2="558.1763"
                    gradientTransform="matrix(0.9978 6.660000e-002 -6.660000e-002 0.9978 -147.437 -225.6274)">
		<stop offset="0" style="stop-color:#E1E6EC"/>
      <stop offset="0.1402" style="stop-color:#FCFCFC"/>
      <stop offset="0.2988" style="stop-color:#FCFCFC"/>
      <stop offset="0.5976" style="stop-color:#E1E6EC"/>
	</linearGradient>
    <path class="st2" d="M616.4,68.1c1.1-19.8,1.3-39.4,0.2-58.7c-6.6-0.4-13.2-0.7-19.7-0.8L111.3,496.6c0.1,4.1,0.4,8.2,0.6,12.3
		C373.3,525.5,602,345,616.4,68.1z"/>
</g>
  <linearGradient id="SVGID_3_" gradientUnits="userSpaceOnUse" x1="939.4066" y1="336.5804" x2="821.426" y2="401.1087"
                  gradientTransform="matrix(0.9972 -7.540000e-002 7.540000e-002 0.9972 -51.8166 -29.1987)">
	<stop offset="0" style="stop-color:#FFFFFF"/>
    <stop offset="0.5031" style="stop-color:#8CC63F"/>
</linearGradient>
  <path class="st3" d="M648.6,79.4c0,0,338.5,64.6,356.4,420.9L648.6,79.4z"/>
</svg>
